<?xml version="1.0" encoding="UTF-8"?>
<svg  viewBox="0 0 1332 350" version="1.1" xmlns="http://www.w3.org/2000/svg" xmlns:xlink="http://www.w3.org/1999/xlink">
    <g id="Page-1" stroke="none" stroke-width="1" fill="none" fill-rule="evenodd">
        <g id="large" transform="translate(0.000000, -39.000000)">
            <path d="M94.5,81.5 L142.5,163.5" id="Line" stroke="#611f69" stroke-width="15" stroke-linecap="square"></path>
            <path d="M34.5,183.5 L82.5,265.5" id="Line" stroke="#D7D7D7" stroke-width="11" stroke-linecap="square"></path>
            <path d="M199.5,89.5 L98,265.569219" id="Line" stroke="#D7D7D7" stroke-width="11" stroke-linecap="square"></path>
            <path d="M221.5,88.5 L269.5,170.5" id="Line" stroke="#D7D7D7" stroke-width="11" stroke-linecap="square"></path>
            <path d="M268,171 L221,254" id="Line" stroke="#979797" stroke-width="11" stroke-linecap="square"></path>
            <path d="M268,171 L221,254" id="Line" stroke="#D7D7D7" stroke-width="11" stroke-linecap="square"></path>
            <path d="M78,81 L31,164" id="Line" stroke="#D7D7D7" stroke-width="11" stroke-linecap="square"></path>
            <path d="M195,66 L100,66.569219" id="Line" stroke="#D7D7D7" stroke-width="11" stroke-linecap="square"></path>
            <path d="M245.5,173.569219 L35,173.569219" id="Line" stroke="#D7D7D7" stroke-width="11" stroke-linecap="square"></path>
            <path d="M94.5,86.5 L206.5,276.5" id="Line" stroke="#611f69" stroke-width="25" stroke-linecap="square"></path>
            <path d="M192,275 L97,275.569219" id="Line" stroke="#D7D7D7" stroke-width="11" stroke-linecap="square"></path>
            <path d="M89.5,81 L89.5,283.5" id="Line" stroke="#611f69" stroke-width="25" stroke-linecap="square"></path>
            <path d="M210.5,81 L210.5,283.5" id="Line" stroke="#611f69" stroke-width="25" stroke-linecap="square"></path>
            <circle id="Oval-2" fill="#611f69" fill-rule="nonzero" cx="88.5" cy="66.5" r="27.5"></circle>
            <circle id="Oval-2" fill="#611f69" fill-rule="nonzero" cx="210.5" cy="66.5" r="27.5"></circle>
            <circle id="Oval-2" fill="#D7D7D7" fill-rule="nonzero" cx="27.5" cy="171.5" r="27.5"></circle>
            <circle id="Oval-2" fill="#611f69" fill-rule="nonzero" cx="87.5" cy="276.5" r="27.5"></circle>
            <circle id="Oval-2" fill="#611f69" fill-rule="nonzero" cx="209.5" cy="276.5" r="27.5"></circle>
            <circle id="Oval-2" fill="#611f69" fill-rule="nonzero" cx="209.5" cy="276.5" r="27.5"></circle>
            <circle id="Oval-2" fill="#D7D7D7" fill-rule="nonzero" cx="268.5" cy="171.5" r="27.5"></circle>
            <g id="et" transform="translate(284.000000, 0.000000)" fill="#611f69">
                <path d="M12.6,236.76 L12.6,205.4 C12.6,191.39993 17.8266144,179.313384 28.28,169.14 C38.7333856,158.966616 51.3332596,153.88 66.08,153.88 C80.2667376,153.88 92.5399482,158.733285 102.9,168.44 C113.260052,178.146715 118.44,190.279927 118.44,204.84 C118.44,210.066693 117.833339,214.266651 116.62,217.44 C115.406661,220.613349 113.44668,222.853327 110.74,224.16 C108.03332,225.466673 105.560011,226.306665 103.32,226.68 C101.079989,227.053335 98.0000196,227.24 94.08,227.24 L30.8,227.24 L30.8,237.6 C30.8,248.613388 34.766627,257.4333 42.7,264.06 C50.633373,270.6867 60.8532708,274 73.36,274 C79.7066984,274 85.2599762,273.066676 90.02,271.2 C94.7800238,269.333324 98.4199874,267.466676 100.94,265.6 C103.460013,263.733324 105.466659,262.8 106.96,262.8 C109.013344,262.8 110.833325,263.77999 112.42,265.74 C114.006675,267.70001 114.8,269.613324 114.8,271.48 C114.8,275.40002 110.786707,279.459979 102.76,283.66 C94.7332932,287.860021 84.7467264,289.96 72.8,289.96 C55.066578,289.96 40.600056,285.060049 29.4,275.26 C18.199944,265.459951 12.6,252.626746 12.6,236.76 Z M30.8,213.8 L86.8,213.8 C92.400028,213.8 96.133324,213.193339 98,211.98 C99.866676,210.766661 100.8,208.20002 100.8,204.28 C100.8,194.94662 97.4866998,186.733369 90.86,179.64 C84.2333002,172.546631 75.8800504,169 65.8,169 C56.0932848,169 47.8333674,172.359966 41.02,179.08 C34.2066326,185.800034 30.8,193.82662 30.8,203.16 L30.8,213.8 Z M145.32,246.84 L145.32,99.28 C145.32,97.413324 146.253324,95.8266732 148.12,94.52 C149.986676,93.2133268 152.039989,92.56 154.28,92.56 C156.706679,92.56 158.853324,93.2133268 160.72,94.52 C162.586676,95.8266732 163.52,97.413324 163.52,99.28 L163.52,155.56 L199.64,155.56 C201.506676,155.56 203.046661,156.306659 204.26,157.8 C205.473339,159.293341 206.08,161.066656 206.08,163.12 C206.08,165.173344 205.473339,166.946659 204.26,168.44 C203.046661,169.933341 201.506676,170.68 199.64,170.68 L163.52,170.68 L163.52,246.84 C163.52,255.986712 165.433314,262.379982 169.26,266.02 C173.086686,269.660018 179.853285,271.48 189.56,271.48 L197.4,271.48 C199.826679,271.48 201.833325,272.273325 203.42,273.86 C205.006675,275.446675 205.8,277.359989 205.8,279.6 C205.8,281.840011 205.006675,283.799992 203.42,285.48 C201.833325,287.160008 199.826679,288 197.4,288 L189.56,288 C160.066519,288 145.32,274.280137 145.32,246.84 Z"></path>
            </g>
            <g id="work" transform="translate(501.000000, 0.000000)" fill="#611f69">
                <path d="M1.96,168.44 C1.96,164.333313 4.5733072,160.833348 9.8,157.94 C15.0266928,155.046652 20.2533072,153.6 25.48,153.6 C30.8933604,153.6 34.3466592,155.55998 35.84,159.48 L63.84,239 L84.84,169.84 C86.3333408,164.986642 90.4399664,162.56 97.16,162.56 C103.880034,162.56 107.986659,164.986642 109.48,169.84 L130.2,239.28 L158.48,159.48 C159.973341,155.55998 163.42664,153.6 168.84,153.6 C173.880025,153.6 179.013307,155.093318 184.24,158.08 C189.466693,161.066682 192.08,164.613313 192.08,168.72 C192.08,170.773344 191.70667,172.453327 190.96,173.76 L147.84,284.64 C146.159992,288.933355 141.400039,291.08 133.56,291.08 C125.346626,291.08 120.400008,288.933355 118.72,284.64 L97.16,223.6 L75.88,284.36 C74.1999916,288.840022 69.0667096,291.08 60.48,291.08 C52.8266284,291.08 48.1600084,288.840022 46.48,284.36 L3.36,173.76 C2.426662,171.893324 1.96,170.120008 1.96,168.44 Z M203,233.12 L203,210.16 C203,194.853257 208.973274,181.55339 220.92,170.26 C232.866726,158.96661 247.146584,153.32 263.76,153.32 C280.000081,153.32 294.186606,158.919944 306.32,170.12 C318.453394,181.320056 324.52,194.666589 324.52,210.16 L324.52,233.12 C324.52,248.240076 318.453394,261.586609 306.32,273.16 C294.186606,284.733391 280.000081,290.52 263.76,290.52 C247.519919,290.52 233.333394,284.733391 221.2,273.16 C209.066606,261.586609 203,248.240076 203,233.12 Z M239.12,233.12 C239.12,239.840034 241.546642,245.813307 246.4,251.04 C251.253358,256.266693 257.039966,258.88 263.76,258.88 C270.293366,258.88 276.033309,256.266693 280.98,251.04 C285.926691,245.813307 288.4,239.840034 288.4,233.12 L288.4,210.16 C288.4,203.813302 285.926691,198.026693 280.98,192.8 C276.033309,187.573307 270.293366,184.96 263.76,184.96 C257.039966,184.96 251.253358,187.526641 246.4,192.66 C241.546642,197.793359 239.12,203.626634 239.12,210.16 L239.12,233.12 Z M347.48,276.52 L347.48,166.2 C347.48,162.839983 349.113317,160.133344 352.38,158.08 C355.646683,156.026656 359.893307,155 365.12,155 C369.78669,155 373.659985,156.026656 376.74,158.08 C379.820015,160.133344 381.36,162.839983 381.36,166.2 L381.36,177.68 C384.346682,171.146634 389.013302,165.453358 395.36,160.6 C401.706698,155.746642 408.519964,153.32 415.8,153.32 L424.48,153.32 C427.840017,153.32 430.87332,154.906651 433.58,158.08 C436.28668,161.253349 437.64,164.893313 437.64,169 C437.64,173.293355 436.28668,177.026651 433.58,180.2 C430.87332,183.373349 427.840017,184.96 424.48,184.96 L415.8,184.96 C407.21329,184.96 399.700032,188.786628 393.26,196.44 C386.819968,204.093372 383.6,214.079938 383.6,226.4 L383.6,276.52 C383.6,279.320014 381.733352,281.933321 378,284.36 C374.266648,286.786679 369.973358,288 365.12,288 C360.079975,288 355.880017,286.833345 352.52,284.5 C349.159983,282.166655 347.48,279.506682 347.48,276.52 Z M453.32,276.52 L453.32,88.64 C453.32,85.2799832 454.953317,82.5733436 458.22,80.52 C461.486683,78.4666564 465.733307,77.44 470.96,77.44 C476.186693,77.44 480.573316,78.4666564 484.12,80.52 C487.666684,82.5733436 489.44,85.2799832 489.44,88.64 L489.44,205.96 L542.08,156.4 C544.320011,154.533324 546.746654,153.6 549.36,153.6 C553.28002,153.6 557.19998,155.466648 561.12,159.2 C565.04002,162.933352 567,166.853313 567,170.96 C567,173.386679 565.973344,175.626656 563.92,177.68 L530.88,207.64 L572.04,266.44 C573.346673,268.306676 574,270.266656 574,272.32 C574,276.426687 571.713356,280.43998 567.14,284.36 C562.566644,288.28002 558.040022,290.24 553.56,290.24 C549.826648,290.24 546.840011,288.653349 544.6,285.48 L506.8,229.76 L489.44,245.72 L489.44,276.52 C489.44,279.320014 487.573352,281.933321 483.84,284.36 C480.106648,286.786679 475.813358,288 470.96,288 C465.919975,288 461.720017,286.833345 458.36,284.5 C454.999983,282.166655 453.32,279.506682 453.32,276.52 Z"></path>
            </g>
            <g id="ly" transform="translate(1077.000000, 0.000000)" fill="#611f69">
                <path d="M20.68,280.72 L20.68,81.08 C20.68,79.213324 21.5199916,77.6266732 23.2,76.32 C24.8800084,75.0133268 27.0266536,74.36 29.64,74.36 C32.2533464,74.36 34.4466578,75.0133268 36.22,76.32 C37.9933422,77.6266732 38.88,79.213324 38.88,81.08 L38.88,280.72 C38.88,282.586676 37.9933422,284.266659 36.22,285.76 C34.4466578,287.253341 32.2533464,288 29.64,288 C27.2133212,288 25.1133422,287.253341 23.34,285.76 C21.5666578,284.266659 20.68,282.586676 20.68,280.72 Z M62.68,162.56 C62.68,160.319989 63.8933212,158.313342 66.32,156.54 C68.7466788,154.766658 71.2666536,153.88 73.88,153.88 C77.4266844,153.88 79.5733296,155.186654 80.32,157.8 L118.68,260.84 L154.8,157.8 C155.920006,155.186654 157.973318,153.88 160.96,153.88 C163.386679,153.88 165.859987,154.766658 168.38,156.54 C170.900013,158.313342 172.16,160.413321 172.16,162.84 C172.16,163.960006 171.973335,164.706665 171.6,165.08 L128.2,282.68 L123.16,296.4 C122.226662,298.826679 120.40668,303.213302 117.7,309.56 C114.99332,315.906698 112.706676,320.479986 110.84,323.28 L103.56,334.48 C100.386651,339.14669 97.3533478,342.506656 94.46,344.56 C91.5666522,346.613344 88.0666872,348.526658 83.96,350.3 C79.8533128,352.073342 75.6533548,352.96 71.36,352.96 C65.759972,352.96 62.96,350.25336 62.96,344.84 C62.96,339.239972 64.826648,336.44 68.56,336.44 C77.1467096,336.44 85.1266298,331.260052 92.5,320.9 C99.8733702,310.539948 105.426648,297.706743 109.16,282.4 L63.52,165.08 C62.9599972,164.146662 62.68,163.30667 62.68,162.56 Z"></path>
            </g>
            <g id="BETA" transform="translate(1204.000000, 87.000000)" fill="#000000">
                <path d="M26.109375,6.796875 C26.109375,8.45313328 25.7421912,9.91405617 25.0078125,11.1796875 C24.2734338,12.4453188 23.203132,13.4140591 21.796875,14.0859375 C23.7812599,14.789066 25.300776,15.8867113 26.3554688,17.3789062 C27.4101615,18.8711012 27.9375,20.6406148 27.9375,22.6875 C27.9375,26.0468918 26.7070436,28.60546 24.2460938,30.3632812 C21.7851439,32.1211025 18.101587,33 13.1953125,33 L0.9609375,33 L0.9609375,28.59375 L5.3203125,28.59375 L5.3203125,2.0859375 L0.9609375,2.0859375 L0.9609375,-2.3203125 L13.3828125,-2.3203125 C17.679709,-2.3203125 20.8749895,-1.57032 22.96875,-0.0703125 C25.0625105,1.429695 26.109375,3.71873461 26.109375,6.796875 Z M20.8359375,7.078125 C20.8359375,5.42186672 20.2500059,4.17578543 19.078125,3.33984375 C17.9062441,2.50390207 16.2500107,2.0859375 14.109375,2.0859375 L10.6171875,2.0859375 L10.6171875,12.3984375 L14.15625,12.3984375 C18.6093973,12.3984375 20.8359375,10.6250177 20.8359375,7.078125 Z M22.5234375,22.59375 C22.5234375,20.6406152 21.8320382,19.1835986 20.4492188,18.2226563 C19.0663993,17.2617139 16.9218895,16.78125 14.015625,16.78125 L10.6171875,16.78125 L10.6171875,28.59375 L12.7265625,28.59375 C14.835948,28.59375 16.5703057,28.464845 17.9296875,28.2070313 C19.2890693,27.9492175 20.394527,27.3867231 21.2460938,26.5195313 C22.0976605,25.6523394 22.5234375,24.3437588 22.5234375,22.59375 Z M55.359375,7.9921875 L55.359375,2.0859375 L40.2421875,2.0859375 L40.2421875,12.609375 L53.390625,12.609375 L53.390625,17.015625 L40.2421875,17.015625 L40.2421875,28.59375 L55.359375,28.59375 L55.359375,22.1484375 L59.71875,22.1484375 L59.71875,33 L30.3515625,33 L30.3515625,28.59375 L34.8984375,28.59375 L34.8984375,2.0859375 L30.3515625,2.0859375 L30.3515625,-2.3203125 L59.71875,-2.3203125 L59.71875,7.9921875 L55.359375,7.9921875 Z M87.28125,10.59375 L87.28125,2.0859375 L79.9921875,2.0859375 L79.9921875,28.59375 L84.5859375,28.59375 L84.5859375,33 L70.1484375,33 L70.1484375,28.59375 L74.6484375,28.59375 L74.6484375,2.0859375 L67.40625,2.0859375 L67.40625,10.59375 L63.046875,10.59375 L63.046875,-2.3203125 L91.640625,-2.3203125 L91.640625,10.59375 L87.28125,10.59375 Z M113.765625,1.9453125 L123.328125,28.59375 L127.265625,28.59375 L127.265625,33 L113.34375,33 L113.34375,28.59375 L117.960938,28.59375 L115.21875,20.578125 L102.398438,20.578125 L99.65625,28.59375 L104.132812,28.59375 L104.132812,33 L90.1171875,33 L90.1171875,28.59375 L94.3828125,28.59375 L103.898438,1.9453125 L99.65625,1.9453125 L99.65625,-2.3203125 L118.007812,-2.3203125 L118.007812,1.9453125 L113.765625,1.9453125 Z M108.9375,1.9453125 L108.773438,1.9453125 L103.78125,16.4296875 L113.8125,16.4296875 L108.9375,1.9453125 Z"></path>
            </g>
        </g>
    </g>
</svg>