<svg viewBox="0 0 296 265" version="1.1" xmlns="http://www.w3.org/2000/svg" xmlns:xlink="http://www.w3.org/1999/xlink">
    <!-- Generator: Sketch 49 (51002) - http://www.bohemiancoding.com/sketch -->
    <desc>Created with Sketch.</desc>
    <defs></defs>
    <g id="Page-1" stroke="none" stroke-width="1" fill="none" fill-rule="evenodd">
        <g id="Artboard-2">
            <g id="N-white">
                <path d="M94.5,42.5 L142.5,124.5" id="Line" stroke="#611f69" stroke-width="15" stroke-linecap="square"></path>
                <path d="M34.5,144.5 L82.5,226.5" id="Line" stroke="#D7D7D7" stroke-width="11" stroke-linecap="square"></path>
                <path d="M199.5,50.5 L98,226.569219" id="Line" stroke="#D7D7D7" stroke-width="11" stroke-linecap="square"></path>
                <path d="M221.5,49.5 L269.5,131.5" id="Line" stroke="#D7D7D7" stroke-width="11" stroke-linecap="square"></path>
                <path d="M268,132 L221,215" id="Line" stroke="#979797" stroke-width="11" stroke-linecap="square"></path>
                <path d="M268,132 L221,215" id="Line" stroke="#D7D7D7" stroke-width="11" stroke-linecap="square"></path>
                <path d="M78,42 L31,125" id="Line" stroke="#D7D7D7" stroke-width="11" stroke-linecap="square"></path>
                <path d="M195,27 L100,27.5692194" id="Line" stroke="#D7D7D7" stroke-width="11" stroke-linecap="square"></path>
                <path d="M245.5,134.569219 L35,134.569219" id="Line" stroke="#D7D7D7" stroke-width="11" stroke-linecap="square"></path>
                <path d="M94.5,47.5 L206.5,237.5" id="Line" stroke="#611f69" stroke-width="25" stroke-linecap="square"></path>
                <path d="M192,236 L97,236.569219" id="Line" stroke="#D7D7D7" stroke-width="11" stroke-linecap="square"></path>
                <path d="M89.5,42 L89.5,244.5" id="Line" stroke="#611f69" stroke-width="25" stroke-linecap="square"></path>
                <path d="M210.5,42 L210.5,244.5" id="Line" stroke="#611f69" stroke-width="25" stroke-linecap="square"></path>
                <circle id="Oval-2" fill="#611f69" fill-rule="nonzero" cx="87.5" cy="27.5" r="27.5"></circle>
                <circle id="Oval-2" fill="#611f69" fill-rule="nonzero" cx="209.5" cy="27.5" r="27.5"></circle>
                <circle id="Oval-2" fill="#D7D7D7" fill-rule="nonzero" cx="27.5" cy="132.5" r="27.5"></circle>
                <circle id="Oval-2" fill="#611f69" fill-rule="nonzero" cx="87.5" cy="237.5" r="27.5"></circle>
                <circle id="Oval-2" fill="#611f69" fill-rule="nonzero" cx="209.5" cy="237.5" r="27.5"></circle>
                <circle id="Oval-2" fill="#611f69" fill-rule="nonzero" cx="209.5" cy="237.5" r="27.5"></circle>
                <circle id="Oval-2" fill="#D7D7D7" fill-rule="nonzero" cx="268.5" cy="132.5" r="27.5"></circle>
            </g>
        </g>
    </g>
</svg>